<?xml version="1.0" standalone="no"?>
<!DOCTYPE svg PUBLIC "-//W3C//DTD SVG 20010904//EN"
 "http://www.w3.org/TR/2001/REC-SVG-20010904/DTD/svg10.dtd">
<svg version="1.0" xmlns="http://www.w3.org/2000/svg"
 width="600.000000pt" height="400.000000pt" viewBox="0 0 600.000000 400.000000"
 preserveAspectRatio="xMidYMid meet">
<g transform="translate(0.000000,400.000000) scale(0.100000,-0.100000)"
fill="#000000" stroke="none">
<path d="M2745 3665 c-175 -22 -308 -59 -460 -130 -452 -210 -765 -603 -862
-1083 -24 -119 -24 -383 0 -504 48 -242 173 -505 331 -695 28 -34 54 -62 57
-62 4 -1 19 18 35 42 89 131 282 384 385 502 435 503 925 915 1434 1207 118
67 264 143 413 215 2 0 -39 43 -90 93 -327 323 -777 474 -1243 415z m390 -25
c44 -5 96 -10 115 -10 28 0 32 -2 20 -11 -12 -8 -9 -9 13 -4 21 4 27 3 21 -6
-4 -7 -3 -9 3 -6 16 10 115 -20 176 -54 10 -5 23 -7 29 -3 7 4 8 3 4 -4 -4 -7
-4 -13 1 -13 4 -1 17 -3 28 -4 11 -1 45 -16 76 -34 31 -17 58 -29 61 -26 2 3
17 -9 33 -25 16 -17 36 -30 46 -30 20 0 42 -24 31 -35 -4 -5 0 -6 9 -3 9 4 22
-2 29 -12 8 -11 18 -16 23 -13 5 3 6 -5 2 -18 -4 -17 -3 -20 3 -10 15 21 74
-26 66 -53 -4 -17 -3 -18 5 -6 9 12 17 8 51 -25 35 -35 54 -65 32 -51 -5 3 -9
-1 -9 -9 0 -10 5 -11 19 -4 10 5 18 6 18 1 0 -9 -124 -69 -126 -61 0 2 -8 -4
-18 -14 -11 -11 -27 -16 -40 -12 -11 2 -15 2 -8 -1 20 -9 -67 -63 -91 -56 -12
3 -18 1 -14 -5 8 -13 -40 -36 -55 -27 -6 4 -8 3 -5 -2 3 -6 -15 -22 -39 -37
-25 -15 -42 -22 -39 -15 4 7 -3 1 -16 -13 -13 -14 -30 -24 -38 -21 -8 3 -11 0
-7 -7 6 -10 -6 -15 -26 -12 -5 0 -8 -3 -8 -9 0 -5 -9 -14 -20 -20 -16 -9 -19
-8 -13 6 5 14 3 14 -15 -2 -24 -20 -29 -30 -10 -18 7 4 8 3 4 -4 -4 -7 -15
-12 -24 -12 -10 0 -24 -9 -32 -20 -8 -11 -19 -20 -26 -20 -6 0 -19 -9 -29 -20
-10 -11 -24 -20 -32 -20 -7 0 -13 -5 -13 -12 0 -6 -3 -9 -6 -5 -4 3 -12 1 -18
-6 -7 -7 -30 -25 -51 -42 -21 -16 -43 -35 -50 -42 -7 -7 -15 -9 -19 -6 -3 4
-6 1 -6 -7 0 -10 -3 -10 -14 -1 -12 10 -13 8 -9 -11 3 -13 3 -20 -1 -16 -8 7
-22 -3 -94 -70 -26 -24 -57 -47 -70 -52 -13 -6 -20 -14 -17 -20 3 -5 0 -7 -8
-4 -8 3 -18 0 -23 -7 -5 -8 -3 -10 6 -4 9 5 11 4 6 -4 -4 -6 -11 -9 -15 -7 -4
3 -23 -10 -41 -29 -20 -21 -38 -31 -48 -28 -10 4 -13 2 -8 -6 8 -12 -41 -58
-56 -54 -5 2 -7 -2 -5 -8 1 -6 -4 -14 -12 -17 -9 -3 -11 0 -6 8 5 8 4 11 -3 6
-6 -4 -9 -12 -6 -20 3 -7 -7 -18 -21 -24 -14 -6 -24 -17 -23 -24 2 -7 -5 -12
-14 -12 -10 1 -16 -2 -13 -6 3 -4 -16 -24 -42 -44 -25 -20 -43 -36 -39 -36 4
0 -14 -20 -41 -45 -56 -53 -50 -46 -113 -113 -27 -30 -50 -58 -50 -63 0 -8
-22 -13 -42 -10 -4 0 -5 -6 -1 -15 6 -16 1 -22 -71 -97 -25 -26 -46 -51 -46
-56 0 -5 -11 -18 -25 -29 -13 -11 -22 -22 -19 -24 2 -3 -16 -24 -41 -47 -27
-25 -43 -47 -39 -54 5 -9 3 -8 -7 1 -7 6 -18 12 -24 12 -5 0 -3 -4 5 -10 12
-7 12 -12 0 -35 -8 -15 -19 -23 -27 -20 -9 3 -11 0 -7 -7 4 -6 0 -16 -8 -22
-8 -6 -22 -26 -32 -43 -9 -18 -21 -33 -26 -33 -6 0 -10 -6 -10 -13 0 -7 -19
-33 -42 -57 -24 -24 -36 -40 -29 -36 8 5 3 -5 -10 -23 -22 -30 -38 -43 -23
-19 4 7 3 8 -4 4 -6 -4 -9 -13 -6 -20 6 -16 -21 -40 -36 -31 -6 4 -9 13 -6 21
3 8 0 11 -9 8 -13 -5 -24 8 -107 129 -18 26 -41 57 -50 69 -19 22 -23 32 -10
24 4 -2 8 3 8 13 0 10 -6 18 -13 18 -7 0 -9 -5 -6 -10 3 -6 1 -7 -6 -3 -6 4
-9 11 -6 16 3 5 -5 26 -18 47 -13 21 -29 55 -36 75 -7 21 -17 40 -22 43 -5 4
-9 19 -9 34 0 15 -4 31 -9 37 -15 16 -41 122 -34 140 4 11 3 15 -4 11 -12 -7
-27 68 -18 84 4 5 1 9 -5 9 -6 0 -11 20 -11 48 0 26 -1 83 -2 127 -1 44 1 107
5 140 3 33 9 87 12 120 7 69 26 132 35 117 4 -6 7 8 7 31 1 23 12 72 25 109
20 57 27 67 44 63 11 -3 14 -2 8 1 -20 9 -15 32 13 69 14 19 23 39 19 45 -3 5
1 13 9 16 9 3 13 10 10 15 -9 16 7 33 17 18 6 -10 8 -6 7 11 -2 19 2 25 15 24
14 -2 15 1 6 12 -6 8 -7 14 -2 14 5 0 25 24 43 54 19 30 38 52 42 50 5 -3 12
6 18 20 5 14 14 26 20 26 5 0 10 5 10 10 0 10 60 71 145 148 32 28 39 31 53
20 15 -11 15 -11 6 2 -9 12 -6 20 12 38 13 12 24 19 24 15 0 -4 9 3 20 15 13
13 26 19 37 15 11 -4 14 -3 9 6 -5 8 -1 14 13 18 12 3 21 9 21 14 0 5 7 9 15
9 8 0 15 5 15 10 0 6 4 10 9 10 15 0 146 62 149 70 2 4 12 5 24 2 13 -3 19 -1
15 5 -5 7 1 9 14 6 16 -4 17 -8 7 -14 -9 -6 -9 -9 -1 -9 20 0 24 18 6 29 -17
10 -16 10 3 11 11 0 48 9 81 20 34 11 69 21 79 23 11 1 24 5 29 8 6 2 24 4 42
4 17 0 30 2 27 6 -6 11 40 19 133 24 47 3 87 6 89 7 6 7 196 -2 269 -12z"/>
<path d="M3946 3237 c3 -10 9 -15 12 -12 3 3 0 11 -7 18 -10 9 -11 8 -5 -6z"/>
<path d="M1726 3048 c3 -5 10 -6 15 -3 13 9 11 12 -6 12 -8 0 -12 -4 -9 -9z"/>
<path d="M2630 2939 c-63 -66 -119 -127 -124 -136 -4 -9 -17 -25 -27 -37 -40
-47 -55 -65 -69 -86 -8 -12 -20 -28 -26 -34 -5 -6 -19 -26 -29 -43 -11 -18
-23 -33 -27 -33 -4 0 -8 -5 -8 -11 0 -7 -17 -37 -37 -68 -49 -73 -136 -237
-186 -351 -9 -19 -28 -62 -42 -95 -53 -119 -104 -302 -135 -488 -12 -70 -20
-135 -17 -145 2 -12 6 -7 11 13 18 74 93 299 129 390 72 177 243 505 370 710
31 50 77 126 103 170 90 151 178 275 236 336 15 16 14 30 -1 28 -3 0 -58 -54
-121 -120z m-57 -108 c-11 -9 -17 -23 -15 -30 3 -8 0 -11 -7 -7 -7 5 -9 1 -5
-8 7 -19 -16 -44 -36 -39 -13 4 -13 3 -1 -5 13 -9 13 -13 0 -29 -8 -10 -20
-22 -26 -26 -7 -4 -13 -20 -13 -34 0 -22 -2 -24 -16 -12 -15 12 -16 11 -10 -9
5 -13 3 -22 -3 -22 -6 0 -11 -7 -11 -15 0 -13 -32 -67 -50 -85 -3 -3 -11 -16
-19 -30 -8 -14 -27 -47 -43 -75 -16 -27 -36 -63 -44 -80 -8 -16 -23 -43 -34
-60 -11 -16 -32 -56 -46 -87 -15 -32 -31 -58 -36 -58 -6 0 -8 -9 -5 -20 3 -11
2 -18 -2 -16 -4 3 -13 1 -21 -5 -10 -5 -11 -9 -3 -9 9 0 9 -8 1 -32 -14 -43
-17 -45 -29 -28 -9 12 -10 12 -5 -2 7 -22 -3 -50 -15 -42 -5 3 -9 -6 -9 -20 0
-14 -4 -26 -10 -26 -5 0 -7 -6 -4 -14 3 -7 -5 -31 -17 -52 -12 -22 -29 -64
-39 -94 l-16 -55 -1 54 c0 29 3 48 6 42 6 -10 35 81 36 114 0 6 4 13 9 17 5 3
10 17 12 30 3 28 27 87 82 198 20 41 37 77 37 80 0 3 5 12 10 20 6 8 18 33 27
55 9 22 21 39 27 37 6 -1 11 10 11 24 0 16 4 23 12 18 7 -4 8 -3 4 4 -9 15 18
55 29 44 5 -4 5 -1 1 6 -5 8 3 27 18 47 14 18 26 37 26 40 0 4 6 12 13 20 31
33 47 56 47 70 0 9 7 18 15 21 8 3 24 21 36 40 11 19 25 32 30 28 5 -3 9 -2 8
3 -5 16 25 64 37 59 6 -2 11 2 10 9 -1 18 47 74 58 67 5 -3 0 -12 -11 -21z
m-595 -1146 c-3 -3 -9 2 -12 12 -6 14 -5 15 5 6 7 -7 10 -15 7 -18z"/>
<path d="M3570 2950 c-9 -6 -10 -10 -3 -10 6 0 15 5 18 10 8 12 4 12 -15 0z"/>
<path d="M1585 2789 c-4 -6 -5 -12 -2 -15 2 -3 7 2 10 11 7 17 1 20 -8 4z"/>
<path d="M1850 2782 c0 -15 -8 -51 -36 -152 -21 -78 -32 -135 -28 -141 2 -4
-1 -9 -7 -11 -21 -7 -44 -275 -44 -523 0 -206 3 -260 24 -385 13 -80 27 -151
30 -158 4 -7 7 108 7 255 -1 179 5 328 16 448 17 181 20 206 38 455 5 74 13
156 16 183 4 31 2 47 -5 47 -6 0 -11 -8 -11 -18z m-26 -304 c-2 -62 -6 -122
-8 -133 -3 -11 -8 -60 -11 -110 -3 -49 -11 -133 -16 -185 -6 -52 -11 -143 -11
-202 0 -83 -3 -108 -13 -108 -17 0 -22 113 -13 295 5 77 8 160 8 184 0 24 4
58 9 76 6 23 5 37 -3 46 -8 9 -8 10 2 5 8 -5 12 1 13 16 3 56 7 89 14 105 4
10 7 30 6 45 -1 14 2 29 8 33 6 3 11 15 11 26 0 10 2 19 4 19 2 0 2 -51 0
-112z m-46 -804 c-3 -14 -5 -12 -10 9 -3 19 -2 25 4 19 6 -6 8 -18 6 -28z"/>
<path d="M1469 2513 c-13 -16 -12 -17 4 -4 9 7 17 15 17 17 0 8 -8 3 -21 -13z"/>
<path d="M2986 2518 c5 -7 2 -9 -8 -6 -8 4 -15 0 -15 -7 0 -10 5 -11 19 -4 16
9 17 29 2 29 -3 0 -2 -5 2 -12z"/>
<path d="M2246 1817 c3 -10 9 -15 12 -12 3 3 0 11 -7 18 -10 9 -11 8 -5 -6z"/>
<path d="M2176 1733 c-6 -14 -5 -15 5 -6 7 7 10 15 7 18 -3 3 -9 -2 -12 -12z"/>
<path d="M2004 1589 c-11 -18 11 -32 25 -16 9 12 8 16 -3 20 -9 4 -18 1 -22
-4z"/>
<path d="M1855 1349 c-4 -6 -5 -12 -2 -15 2 -3 7 2 10 11 7 17 1 20 -8 4z"/>
<path d="M4315 3141 c-272 -84 -641 -273 -934 -478 -151 -106 -211 -154 -205
-165 4 -7 3 -8 -5 -4 -14 9 -44 -12 -226 -169 -179 -153 -313 -282 -515 -494
-90 -95 -317 -386 -410 -526 -29 -44 -68 -102 -86 -129 -19 -27 -32 -52 -29
-54 3 -3 6 -3 8 -1 20 27 182 216 251 294 50 55 108 120 130 145 93 104 480
483 586 574 63 54 128 109 143 123 136 118 440 339 652 474 207 132 532 322
662 387 34 18 64 36 68 42 3 5 5 10 3 9 -2 0 -43 -13 -93 -28z m-155 -85 c0
-2 -16 -13 -35 -25 -19 -11 -35 -17 -35 -12 0 4 15 15 33 24 37 18 37 18 37
13z m-80 -46 c0 -5 -12 -13 -27 -16 -16 -4 -36 -14 -45 -22 -10 -8 -18 -11
-19 -6 0 5 -4 1 -8 -9 -4 -10 -11 -18 -16 -18 -6 0 -18 -8 -28 -17 -17 -15
-17 -15 -11 3 5 12 4 16 -4 11 -6 -3 -14 -1 -18 5 -4 8 -3 9 4 5 7 -4 12 -1
12 6 0 9 3 9 10 -2 8 -13 10 -12 10 4 0 11 5 16 14 13 8 -3 17 1 20 10 4 9 9
13 12 11 3 -3 22 3 42 13 43 21 52 23 52 9z m-174 -97 c-7 -7 -26 7 -26 19 0
6 6 6 15 -2 9 -7 13 -15 11 -17z m-20 -4 c13 -15 15 -21 4 -17 -8 2 -25 -7
-38 -21 -13 -14 -21 -20 -17 -13 8 16 -5 15 -27 -2 -10 -7 -14 -17 -10 -21 4
-5 -1 -6 -10 -2 -9 3 -19 0 -22 -9 -3 -8 -12 -14 -20 -14 -7 0 -17 -7 -20 -16
-3 -8 -11 -12 -17 -9 -6 4 -24 -7 -40 -23 -17 -17 -43 -34 -60 -37 -16 -4 -34
-16 -40 -27 -6 -11 -13 -17 -16 -14 -10 9 -33 -15 -26 -27 3 -6 1 -7 -6 -3 -7
4 -20 -2 -32 -16 -11 -13 -18 -16 -14 -8 4 8 -3 4 -14 -10 -11 -14 -21 -21
-21 -16 0 5 -9 -1 -20 -14 -11 -13 -32 -23 -49 -24 -16 -1 -27 -4 -24 -8 2 -5
-1 -8 -7 -8 -6 0 -9 -4 -6 -9 3 -5 -1 -12 -10 -15 -26 -10 -33 -7 -29 14 2 11
0 18 -5 15 -5 -3 -7 -14 -5 -25 2 -11 -4 -24 -13 -30 -9 -5 -12 -10 -6 -10 5
0 14 3 20 8 5 4 1 -1 -10 -11 -11 -10 -26 -15 -33 -13 -9 4 -11 1 -7 -6 5 -8
2 -9 -10 -5 -10 4 -15 3 -11 -3 3 -6 -2 -10 -12 -10 -12 0 -14 -3 -6 -8 9 -6
7 -13 -9 -26 -20 -18 -21 -18 -16 1 4 13 -13 2 -47 -31 -98 -95 -130 -123
-160 -142 l-30 -18 20 23 20 24 -22 -14 c-13 -8 -21 -20 -18 -29 2 -8 -7 -23
-22 -34 -14 -11 -23 -14 -19 -7 6 9 3 9 -13 -1 -12 -7 -19 -17 -17 -23 5 -14
-21 -37 -29 -25 -12 20 -26 10 -15 -10 8 -16 8 -20 -2 -18 -7 2 -12 -3 -10
-11 2 -9 -3 -11 -13 -7 -9 3 -13 2 -10 -4 3 -5 -8 -16 -24 -24 -16 -9 -32 -24
-36 -35 -3 -10 -20 -26 -38 -35 -18 -8 -43 -31 -56 -51 -18 -26 -26 -32 -32
-23 -6 9 -9 6 -9 -10 0 -13 -4 -20 -10 -17 -5 3 -10 1 -10 -4 0 -18 -14 -12
-28 10 -8 12 -9 18 -3 14 6 -3 11 -1 11 4 0 6 6 11 14 11 7 0 20 8 27 18 13
15 12 16 -3 3 -11 -8 -18 -9 -18 -3 0 17 43 38 48 23 2 -6 8 -11 13 -11 6 0 7
6 2 13 -4 6 -8 17 -9 24 -3 16 23 36 36 28 5 -3 10 1 10 10 0 8 10 20 23 25
12 5 18 9 13 9 -6 1 0 10 12 22 12 11 27 17 32 14 6 -3 7 1 4 9 -4 9 -1 16 7
16 7 0 25 14 40 31 17 19 32 28 40 23 8 -5 11 -2 6 8 -3 10 5 25 21 39 14 13
20 16 13 7 -8 -11 -9 -18 -3 -18 6 0 13 9 17 19 3 11 15 23 26 26 10 4 17 10
14 15 -3 4 2 11 11 14 10 4 13 2 8 -6 -4 -7 -3 -8 5 -4 6 4 9 11 7 15 -3 4 10
22 29 39 19 16 35 25 36 19 0 -7 4 -4 8 6 4 10 10 18 15 17 4 -1 17 9 28 22
11 13 23 23 26 23 22 2 52 18 52 28 0 18 40 49 55 43 9 -3 12 0 9 8 -3 7 2 19
11 26 8 7 15 10 15 6 0 -3 9 3 20 14 11 11 27 20 35 20 8 0 15 7 15 15 0 9 6
12 17 8 11 -4 14 -3 9 5 -4 7 -3 12 2 12 5 0 21 11 36 25 15 14 34 25 42 25 9
0 12 5 8 13 -4 6 -4 9 1 5 4 -4 20 1 35 12 15 11 30 17 34 13 3 -3 6 -1 6 5 0
6 9 14 20 17 11 4 18 11 15 16 -3 5 2 6 11 2 13 -5 15 -3 9 7 -5 8 -4 11 2 7
6 -4 25 6 42 23 21 18 38 27 49 23 9 -3 14 -2 10 2 -8 9 2 16 92 61 30 16 64
36 74 46 25 23 29 23 52 -3z m-741 -458 c-3 -6 -11 -11 -17 -11 -6 0 -6 6 2
15 14 17 26 13 15 -4z m-597 -571 c11 -19 10 -20 -13 -16 -13 3 -28 0 -31 -6
-4 -6 -3 -8 2 -5 6 3 16 2 24 -4 12 -7 11 -9 -5 -10 -11 -1 -23 -1 -27 -1 -3
1 -12 -6 -20 -15 -11 -14 -11 -16 2 -8 15 10 40 16 40 10 0 -1 -11 -10 -25
-19 -22 -15 -26 -15 -31 -2 -5 13 52 95 66 96 3 0 11 -9 18 -20z m-90 -82 c16
-16 15 -28 -3 -28 -8 0 -15 -3 -15 -7 0 -11 -56 -73 -65 -73 -4 0 -4 7 -1 16
3 9 2 12 -5 9 -5 -4 -7 -16 -3 -27 4 -15 3 -18 -7 -13 -9 6 -10 3 -5 -11 7
-18 6 -18 -10 -3 -15 16 -14 19 11 48 15 17 32 28 36 25 5 -3 6 1 3 9 -5 15
11 31 31 32 6 0 9 8 9 18 -2 20 7 22 24 5z m-118 -154 c0 -8 -4 -13 -9 -10 -5
4 -11 0 -14 -6 -2 -7 -7 -10 -11 -6 -11 9 13 50 25 43 5 -4 9 -13 9 -21z m-37
-30 c8 -8 -16 -33 -25 -27 -5 2 -8 -1 -8 -7 0 -13 -49 -75 -59 -75 -3 0 -5 -4
-3 -8 1 -5 -2 -6 -8 -2 -7 4 0 19 17 40 15 18 36 45 46 59 18 26 28 31 40 20z"/>
<path d="M3836 2892 c-3 -5 1 -9 9 -9 8 0 12 4 9 9 -3 4 -7 8 -9 8 -2 0 -6 -4
-9 -8z"/>
<path d="M2995 2320 c-3 -6 1 -7 9 -4 18 7 21 14 7 14 -6 0 -13 -4 -16 -10z"/>
<path d="M2710 2040 c-6 -11 -8 -20 -6 -20 3 0 10 9 16 20 6 11 8 20 6 20 -3
0 -10 -9 -16 -20z"/>
<path d="M4020 2906 c0 -2 7 -7 16 -10 8 -3 12 -2 9 4 -6 10 -25 14 -25 6z"/>
<path d="M4314 2718 c-17 -26 -171 -153 -295 -242 -153 -109 -332 -216 -554
-331 -446 -231 -572 -300 -744 -412 -162 -106 -310 -219 -427 -328 -6 -5 -90
-80 -187 -165 -98 -85 -176 -159 -174 -164 6 -18 140 -115 229 -167 426 -245
967 -265 1407 -52 157 77 279 161 395 273 415 402 562 954 400 1500 -28 93
-37 109 -50 88z m-1 -45 c-5 -13 -2 -15 11 -10 14 6 16 3 11 -14 -5 -14 -3
-19 3 -15 6 4 8 -2 5 -14 -3 -11 -1 -20 5 -20 6 0 8 -9 5 -20 -3 -12 0 -20 7
-20 6 0 10 -6 7 -12 -2 -7 0 -26 4 -43 26 -88 39 -218 35 -341 -4 -142 -34
-333 -48 -312 -6 8 -7 0 -4 -20 3 -20 -1 -38 -10 -47 -9 -8 -12 -19 -9 -25 3
-5 1 -10 -5 -10 -7 0 -9 -7 -6 -16 4 -9 1 -22 -5 -30 -6 -7 -12 -25 -14 -39
-1 -15 -8 -32 -15 -38 -10 -10 -11 -7 -6 13 6 21 5 22 -4 7 -6 -9 -8 -22 -5
-28 10 -15 -15 -70 -28 -62 -5 3 -7 1 -4 -5 10 -15 -3 -43 -16 -35 -6 3 -7 1
-3 -6 9 -13 -12 -43 -24 -36 -5 3 -6 -5 -2 -17 4 -15 2 -19 -8 -13 -8 5 -11 3
-8 -6 4 -12 -7 -30 -39 -64 -7 -8 -13 -20 -13 -27 0 -10 -2 -10 -9 1 -10 16
-24 -1 -16 -21 6 -14 -70 -105 -85 -101 -4 1 -7 -5 -6 -14 0 -9 -9 -22 -21
-28 -13 -7 -20 -14 -17 -17 3 -3 -21 -28 -53 -54 -32 -27 -60 -53 -62 -58 -2
-4 -7 -2 -12 5 -7 12 -9 12 -9 1 0 -8 -10 -22 -22 -32 -18 -14 -27 -16 -43 -7
-18 9 -19 9 -6 -6 8 -10 9 -17 3 -17 -6 0 -18 -7 -26 -16 -9 -8 -25 -16 -35
-17 -11 -1 -18 -3 -16 -6 11 -10 -37 -32 -58 -26 -17 5 -19 4 -7 -4 13 -9 13
-12 1 -23 -8 -7 -11 -8 -8 -2 4 7 1 14 -7 17 -9 4 -13 0 -12 -11 3 -18 -40
-45 -57 -35 -6 4 -7 1 -2 -7 6 -9 2 -10 -15 -5 -17 5 -21 4 -15 -5 5 -9 4 -11
-4 -6 -13 9 -53 -2 -47 -13 3 -4 -16 -13 -42 -21 -56 -16 -50 -14 -84 -28 -15
-6 -35 -9 -44 -5 -9 3 -19 1 -23 -5 -4 -6 -40 -16 -81 -22 -41 -6 -96 -16
-123 -22 -62 -13 -283 -7 -324 9 -39 16 -53 17 -33 2 12 -8 10 -9 -7 -4 -12 3
-44 10 -70 15 -26 4 -57 10 -68 13 -85 22 -121 33 -125 38 -3 4 -21 10 -40 14
-19 4 -46 14 -60 23 -14 9 -27 17 -30 17 -3 1 -22 7 -43 15 -30 11 -36 18 -32
35 3 11 2 14 -1 8 -7 -16 -34 -17 -34 -2 0 5 -4 7 -10 4 -5 -3 -10 -1 -10 4 0
6 -7 11 -15 11 -8 0 -15 5 -15 11 0 6 -6 9 -12 6 -7 -2 -25 10 -40 26 -16 17
-28 27 -28 22 0 -4 -10 0 -22 11 -22 19 -23 19 -8 -1 11 -15 7 -14 -15 5 -45
37 -52 44 -36 35 10 -6 12 -4 7 4 -5 7 -15 10 -25 6 -9 -3 0 11 19 32 19 21
26 30 15 22 -35 -28 -51 -32 -20 -5 17 14 36 23 43 21 7 -3 11 -1 7 4 -5 10
40 46 85 69 14 7 16 10 6 7 -19 -6 -19 -5 -1 15 10 11 20 18 23 16 2 -3 14 6
27 20 12 13 28 24 34 24 7 0 10 4 6 10 -3 5 7 17 22 27 15 10 32 23 36 30 5 8
13 11 18 7 5 -3 8 -1 7 5 -3 11 70 81 84 81 5 0 6 4 3 10 -4 6 1 7 11 3 13 -5
15 -3 10 8 -4 8 2 3 14 -11 19 -22 20 -22 11 -3 -16 33 -13 38 9 18 16 -15 23
-16 33 -6 9 10 9 11 -5 6 -10 -4 -20 0 -26 12 -9 16 -7 19 11 20 18 2 19 0 7
-8 -13 -9 -13 -10 0 -6 8 2 15 10 15 18 0 8 8 13 17 13 11 -1 15 5 12 19 -3
20 -3 20 17 -1 23 -26 26 -27 26 -8 0 8 -5 14 -11 13 -6 -1 -11 5 -11 13 0 8
5 15 10 15 12 0 36 19 67 53 12 12 30 22 39 22 10 0 24 9 32 20 8 11 17 17 20
13 4 -3 19 6 33 21 18 18 34 25 48 21 12 -3 15 -2 9 1 -17 7 -17 27 -1 22 7
-3 24 6 37 19 14 12 52 36 85 53 33 16 56 30 51 31 -6 0 0 4 13 9 12 5 28 8
35 6 6 -1 9 -1 5 1 -19 11 -6 23 13 12 16 -8 20 -8 15 0 -5 7 9 18 33 30 23
10 38 20 35 23 -8 9 46 19 59 11 8 -5 8 -2 -1 9 -10 13 -10 17 3 22 10 4 14 2
9 -5 -4 -7 -1 -10 7 -7 8 3 13 12 11 19 -2 8 0 11 3 7 4 -4 21 0 37 8 17 9 39
17 50 19 12 3 23 7 27 11 3 4 -3 4 -14 1 -20 -7 -20 -7 -1 8 11 8 26 15 34 15
8 0 26 8 40 19 15 10 42 22 60 26 19 4 29 11 26 17 -5 7 3 9 22 4 19 -4 24 -3
15 3 -11 7 -9 11 9 21 18 10 21 9 14 -1 -4 -7 8 -2 27 11 19 14 40 24 46 22 7
-2 13 1 13 6 0 8 74 55 175 112 20 11 41 17 47 14 7 -4 8 -2 4 4 -4 7 -1 12 9
12 10 0 13 5 9 12 -4 6 -3 8 4 5 14 -9 43 3 36 14 -3 5 3 12 13 16 10 3 31 18
46 32 25 23 30 24 50 12 18 -11 20 -11 10 0 -13 13 -19 38 -7 26 3 -3 16 3 27
14 12 11 27 17 33 15 6 -2 16 6 23 20 9 22 22 29 44 25 4 0 6 5 5 12 -2 6 5
11 14 11 10 -1 14 4 11 12 -3 8 1 14 10 14 8 0 17 3 19 8 8 18 106 91 114 84
5 -4 6 -3 2 2 -4 5 -3 15 3 23 15 18 20 16 12 -4z"/>
<path d="M3339 2023 c-13 -16 -12 -17 4 -4 16 13 21 21 13 21 -2 0 -10 -8 -17
-17z"/>
<path d="M3315 1732 c-16 -1 -56 -7 -87 -12 -32 -6 -70 -13 -85 -15 -15 -2
-55 -11 -88 -20 -33 -10 -68 -18 -77 -18 -10 -1 -18 -5 -18 -9 0 -4 -17 -10
-37 -14 -21 -4 -42 -10 -48 -14 -5 -3 -32 -15 -60 -25 -54 -19 -302 -140 -323
-158 -20 -16 1 -29 29 -18 13 5 17 10 9 11 -12 0 -11 3 3 11 9 5 22 7 29 3 6
-4 8 -3 5 3 -9 15 115 75 138 68 16 -6 17 -5 5 4 -13 9 -13 11 0 12 8 1 21 1
29 0 8 -2 10 2 6 10 -6 9 0 10 21 6 16 -3 23 -4 17 -1 -18 8 -16 27 2 20 8 -3
15 -1 15 4 0 5 7 6 17 3 11 -4 14 -3 9 6 -6 9 0 10 20 5 19 -5 25 -3 20 4 -4
7 4 14 21 17 15 4 39 12 53 20 14 7 38 13 55 13 16 0 31 5 33 11 2 6 19 11 37
11 19 0 37 5 41 11 4 8 9 7 15 -2 5 -8 9 -9 9 -3 0 6 6 11 13 12 6 1 28 5 47
8 19 4 54 7 78 7 23 0 42 2 42 6 0 4 26 8 58 9 31 1 79 4 105 6 27 1 42 -1 35
-6 -7 -4 -24 -8 -38 -8 -14 0 -67 -11 -118 -25 -51 -14 -96 -24 -100 -23 -4 1
-14 -1 -22 -4 -40 -14 -171 -48 -185 -48 -9 0 -30 -8 -48 -17 -18 -9 -45 -16
-60 -15 -16 2 -26 -2 -23 -7 6 -10 -26 -21 -61 -21 -13 0 -23 -3 -23 -8 0 -11
-116 -46 -129 -38 -7 4 -9 1 -5 -8 4 -11 -4 -17 -30 -22 -20 -3 -36 -11 -36
-16 0 -6 -11 -8 -25 -5 -14 2 -23 2 -21 -1 3 -2 -18 -16 -47 -30 -116 -56
-171 -81 -154 -70 10 7 28 21 39 31 12 9 29 17 39 17 21 0 34 16 20 24 -9 6
-35 -7 -97 -49 -220 -150 -287 -215 -121 -117 99 58 254 137 321 164 27 10 70
28 95 40 46 21 67 28 251 91 247 84 599 158 758 158 28 0 52 4 52 9 0 4 -64
11 -142 15 -129 6 -188 6 -283 -3z"/>
<path d="M3945 1161 c-3 -6 -10 -9 -14 -7 -4 3 -7 -4 -8 -14 -2 -18 -1 -18 19
2 11 11 17 22 15 24 -3 3 -8 0 -12 -5z"/>
<path d="M2174 952 c3 -3 19 -6 36 -7 17 -1 28 1 24 4 -3 3 -19 6 -35 7 -17 1
-28 -1 -25 -4z"/>
<path d="M3660 950 c-9 -6 -10 -10 -3 -10 6 0 15 5 18 10 8 12 4 12 -15 0z"/>
<path d="M1778 1135 c-67 -35 -130 -55 -201 -64 -54 -7 -58 -9 -34 -15 58 -17
229 37 273 85 22 24 20 24 -38 -6z"/>
<path d="M1770 1064 c-96 -96 -218 -187 -347 -257 -98 -54 -69 -55 42 -2 101
49 187 112 288 212 83 82 114 120 105 128 -2 2 -41 -34 -88 -81z"/>
<path d="M1855 1063 c-24 -64 -81 -169 -116 -214 -30 -38 -35 -49 -21 -49 12
0 87 102 115 156 27 53 53 141 45 150 -3 2 -13 -17 -23 -43z"/>
<path d="M1900 1045 c-1 -27 -3 -57 -4 -65 -2 -8 -6 -42 -9 -75 l-6 -60 15 40
c20 54 30 167 16 191 -10 16 -12 11 -12 -31z"/>
</g>
</svg>
